<svg enable-background="new 0 0 512 512" version="1.1" viewBox="0 0 512 512" xmlns="http://www.w3.org/2000/svg">
  <path d="m501.33 170.67h-320c-5.896 0-10.667 4.771-10.667 10.667v21.333c0 5.896 4.771 10.667 10.667 10.667h320c5.896 0 10.667-4.771 10.667-10.667v-21.333c0-5.896-4.771-10.667-10.667-10.667z"/>
  <path d="m501.33 298.67h-490.67c-5.896 0-10.667 4.771-10.667 10.666v21.333c0 5.896 4.771 10.667 10.667 10.667h490.67c5.896 0 10.667-4.771 10.667-10.667v-21.333c-1e-3 -5.895-4.772-10.666-10.668-10.666z"/>
  <path d="m501.33 426.67h-320c-5.896 0-10.667 4.771-10.667 10.667v21.333c0 5.896 4.771 10.667 10.667 10.667h320c5.896 0 10.667-4.771 10.667-10.667v-21.333c0-5.896-4.771-10.667-10.667-10.667z"/>
  <path d="m501.33 42.667h-490.67c-5.896 0-10.667 4.771-10.667 10.666v21.333c0 5.896 4.771 10.667 10.667 10.667h490.67c5.896 0 10.667-4.771 10.667-10.667v-21.333c-1e-3 -5.895-4.772-10.666-10.668-10.666z"/>
</svg>
