<svg width="26" height="26" version="1.1" viewBox="0 0 6.8792 6.8792" xmlns="http://www.w3.org/2000/svg">
  <g transform="translate(0 -290.12)">
    <path d="m1.4978 296.98c-0.21996-0.0285-0.46241-0.11301-0.65317-0.22765-0.15238-0.0916-0.23271-0.15608-0.36374-0.292-0.23127-0.23989-0.38272-0.52887-0.44978-0.85815-0.022385-0.10993-0.023997-0.24738-0.023997-2.045 0-2.1397-0.0050021-2.0127 0.089332-2.28 0.091584-0.25961 0.20988-0.44561 0.413-0.64938 0.25969-0.26051 0.55304-0.41425 0.92493-0.48477 0.070513-0.0134 0.51083-0.0171 2.0107-0.0171 1.7912 0 1.9284 2e-3 2.0383 0.024 0.68991 0.14049 1.2218 0.67236 1.3623 1.3623 0.022385 0.1099 0.023997 0.24708 0.023997 2.0383 0 1.4999-0.00373 1.9402-0.017119 2.0107-0.070504 0.37189-0.22425 0.66525-0.48477 0.92493-0.20731 0.20666-0.40278 0.32966-0.66175 0.41642-0.26804 0.0898-0.12118 0.0841-2.2139 0.087-1.0767 2e-3 -1.941-3e-3 -1.9943-9e-3zm4.0087-0.61331c0.18869-0.0655 0.30981-0.13961 0.44353-0.27129 0.13463-0.13258 0.21174-0.24574 0.26982-0.39595 0.083551-0.21609 0.079875-0.1102 0.075905-2.1863l-0.0036-1.8965-0.038102-0.11416c-0.12238-0.3666-0.38575-0.63286-0.74753-0.75572l-0.12759-0.04329h-3.8812l-0.11415 0.0381c-0.3666 0.12237-0.63287 0.38575-0.75573 0.74753l-0.043327 0.12758v3.8812l0.038102 0.11415c0.13664 0.40937 0.44645 0.69185 0.86168 0.7857 0.066058 0.0149 0.4242 0.0178 1.9876 0.0158l1.907-3e-3zm-3.1679-1.5265c-0.1635-0.0524-0.2433-0.24627-0.16605-0.40335 0.010899-0.0222 0.20788-0.22916 0.43774-0.45997l0.41793-0.41967-0.41793-0.41968c-0.22986-0.23083-0.42748-0.43868-0.43915-0.46191-0.058379-0.11618-0.038033-0.2343 0.056664-0.329 0.0947-0.0947 0.21282-0.11505 0.329-0.0567 0.023229 0.0117 0.23109 0.20929 0.46191 0.43915l0.41968 0.41791 0.41967-0.41791c0.23082-0.22986 0.43781-0.42694 0.45996-0.43796 0.15971-0.0793 0.35498 4e-3 0.40421 0.17411 0.021866 0.0752 0.016042 0.14327-0.018173 0.2123-0.010987 0.0222-0.20792 0.22918-0.43764 0.46006l-0.41767 0.41978 0.41783 0.41957c0.22981 0.23077 0.42684 0.43772 0.43785 0.45987 0.079363 0.15971-0.00477 0.35498-0.17411 0.40422-0.075095 0.0218-0.14299 0.0161-0.2123-0.018-0.022158-0.0109-0.2291-0.20784-0.45987-0.43765l-0.41958-0.41782-0.41977 0.41766c-0.23087 0.22973-0.43798 0.42688-0.46024 0.43813-0.061854 0.0313-0.15309 0.0383-0.21998 0.0168z" stroke-width=".01343"/>
  </g>
</svg>
