<svg enable-background="new 0 0 26 26" version="1.1" viewBox="0 0 26 26" xmlns="http://www.w3.org/2000/svg">
  <path d="m13.594 20.85v3.15h-10v-22h10v3.15c0.633-0.323 1.304-0.565 2-0.727v-3.423c0-0.551-0.448-1-1-1h-12c-0.55 0-1 0.449-1 1v24c0 0.551 0.449 1 1 1h12c0.552 0 1-0.449 1-1v-3.424c-0.696-0.161-1.367-0.403-2-0.726z"/>
  <path d="m17.594 6.188c-3.762 0-6.813 3.051-6.812 6.813-1e-3 3.761 3.05 6.812 6.812 6.812s6.813-3.051 6.813-6.813-3.052-6.812-6.813-6.812zm3.632 7.802-7.267 1e-3v-1.982h7.268l-1e-3 1.981z"/>
</svg>
