<svg enable-background="new 0 0 15.381 15.381" version="1.1" viewBox="0 0 15.381 15.381" xmlns="http://www.w3.org/2000/svg">
  <path d="M0,1.732v7.732h6.053c0-0.035-0.004-0.07-0.004-0.104c0-0.434,0.061-0.854,0.165-1.255H1.36V3.092    h12.662v2.192c0.546,0.396,1.01,0.897,1.359,1.477V1.732H0z"/>
  <path d="m11.196 5.28c-2.307 0-4.183 1.877-4.183 4.184 0 2.308 1.876 4.185 4.183 4.185 2.309 0 4.185-1.877 4.185-4.185 0-2.307-1.876-4.184-4.185-4.184zm0 7.233c-1.679 0-3.047-1.367-3.047-3.049 0-1.68 1.368-3.049 3.047-3.049 1.684 0 3.05 1.369 3.05 3.049 0 1.682-1.366 3.049-3.05 3.049z"/>
  <rect x="9.312" y="8.759" width="3.844" height="1.104"/>
</svg>
