<svg enable-background="new 0 0 512 512" version="1.1" viewBox="0 0 512 512" xmlns="http://www.w3.org/2000/svg">
  <path d="m263.51 62.967c1.672-11.134 9.326-22.967 20.222-22.967 11.028 0 20 8.972 20 20h40c0-33.084-26.916-60-60-60-33.629 0-55.527 28.691-59.784 57.073l-12.862 86.927h-61.354v40h55.436l-39.22 265.07-0.116 0.937c-1.063 10.62-9.393 21.99-20.1 21.99-11.028 0-20-8.972-20-20h-40c0 33.084 26.916 60 60 60 33.661 0 56.771-29.141 59.848-57.496l40.023-270.5h60.129v-40h-54.211l11.989-81.033z"/>
  <polygon points="426.27 248 378.24 248 352.25 287.08 334.92 248 291.17 248 326 326.57 270.52 410 318.56 410 345.21 369.92 362.98 410 406.73 410 371.46 330.43"/>
</svg>
