<svg enable-background="new 0 0 512 512" version="1.1" viewBox="0 0 512 512" xmlns="http://www.w3.org/2000/svg">
  <path d="m248.16 343.22c-14.639 0-26.491 12.2-26.491 26.84 0 14.291 11.503 26.84 26.491 26.84s26.84-12.548 26.84-26.84c0-14.64-12.199-26.84-26.84-26.84z"/>
  <path d="m252.69 140c-47.057 0-68.668 27.885-68.668 46.708 0 13.595 11.502 19.869 20.914 19.869 18.822 0 11.154-26.84 46.708-26.84 17.429 0 31.372 7.669 31.372 23.703 0 18.824-19.52 29.629-31.023 39.389-10.108 8.714-23.354 23.006-23.354 52.983 0 18.125 4.879 23.354 19.171 23.354 17.08 0 20.565-7.668 20.565-14.291 0-18.126 0.35-28.583 19.521-43.571 9.411-7.32 39.04-31.023 39.04-63.789s-29.629-57.515-74.246-57.515z"/>
  <path d="m256 0c-141.48 0-256 114.5-256 256v236c0 11.046 8.954 20 20 20h236c141.48 0 256-114.5 256-256 0-141.48-114.5-256-256-256zm0 472h-216v-216c0-119.38 96.607-216 216-216 119.38 0 216 96.607 216 216 0 119.38-96.607 216-216 216z"/>
</svg>
