<svg width="512pt" height="512pt" version="1.1" viewBox="-21 0 512 512" xmlns="http://www.w3.org/2000/svg">
  <path d="m288 106.67c-3.9258 0-7.8516-1.4297-10.922-4.3125l-80-74.664c-4.8008-4.4805-6.3789-11.457-3.9688-17.559 2.4102-6.1016 8.3203-10.133 14.891-10.133h160c6.5703 0 12.48 4.0117 14.891 10.133 2.4102 6.125 0.83203 13.078-3.9688 17.559l-80 74.664c-3.0703 2.8828-6.9961 4.3125-10.922 4.3125zm-39.402-74.668 39.402 36.777 39.402-36.777z"/>
  <path d="m432 512h-53.332c-20.59 0-37.336-16.746-37.336-37.332v-330.67c0-20.586 16.746-37.332 37.336-37.332h53.332c20.586 0 37.332 16.746 37.332 37.332v330.67c0 20.586-16.746 37.332-37.332 37.332zm-53.332-373.33c-2.9453 0-5.3359 2.3867-5.3359 5.332v330.67c0 2.9414 2.3906 5.332 5.3359 5.332h53.332c2.9453 0 5.332-2.3906 5.332-5.332v-330.67c0-2.9453-2.3867-5.332-5.332-5.332z"/>
  <path d="m197.33 512h-160c-20.586 0-37.332-16.746-37.332-37.332v-330.67c0-20.586 16.746-37.332 37.332-37.332h160c20.59 0 37.336 16.746 37.336 37.332v330.67c0 20.586-16.746 37.332-37.336 37.332zm-160-373.33c-2.9414 0-5.332 2.3867-5.332 5.332v330.67c0 2.9414 2.3906 5.332 5.332 5.332h160c2.9453 0 5.3359-2.3906 5.3359-5.332v-330.67c0-2.9453-2.3906-5.332-5.3359-5.332z"/>
  <path d="m453.33 325.33h-96c-8.832 0-16-7.168-16-16s7.168-16 16-16h96c8.832 0 16 7.168 16 16s-7.168 16-16 16z"/>
  <path d="m218.67 325.33h-202.67c-8.832 0-16-7.168-16-16s7.168-16 16-16h202.67c8.832 0 16 7.168 16 16s-7.168 16-16 16z"/>
  <path d="m117.33 512c-8.832 0-16-7.168-16-16v-373.33c0-8.832 7.168-16 16-16s16 7.168 16 16v373.33c0 8.832-7.168 16-16 16z"/>
</svg>
