<svg width="512pt" height="512pt" version="1.1" viewBox="0 0 512 512" xmlns="http://www.w3.org/2000/svg">
  <path d="m453.33 213.33h-394.66c-32.363 0-58.668-26.301-58.668-58.664v-96c0-32.363 26.305-58.668 58.668-58.668h394.66c32.363 0 58.668 26.305 58.668 58.668v96c0 32.363-26.305 58.664-58.668 58.664zm-394.66-181.33c-14.699 0-26.668 11.969-26.668 26.668v96c0 14.699 11.969 26.664 26.668 26.664h394.66c14.699 0 26.668-11.965 26.668-26.664v-96c0-14.699-11.969-26.668-26.668-26.668z"/>
  <path d="m256 512c-8.832 0-16-7.168-16-16v-224c0-8.832 7.168-16 16-16s16 7.168 16 16v224c0 8.832-7.168 16-16 16z"/>
  <path d="m256 512c-4.0977 0-8.1914-1.5586-11.309-4.6914l-85.332-85.336c-6.25-6.25-6.25-16.383 0-22.633s16.383-6.25 22.637 0l74.023 74.027 74.027-74.027c6.25-6.25 16.387-6.25 22.637 0s6.25 16.383 0 22.633l-85.336 85.336c-3.1562 3.1328-7.25 4.6914-11.348 4.6914z"/>
</svg>
