<svg width="512pt" height="512pt" version="1.1" viewBox="0 0 512.02 512" xmlns="http://www.w3.org/2000/svg">
  <path d="m357.35 512.01h96c32.363 0 58.668-26.305 58.668-58.668v-394.66c0-32.363-26.305-58.668-58.668-58.668h-96c-32.363 0-58.664 26.305-58.664 58.668v394.66c0 32.363 26.301 58.668 58.664 58.668zm96-480c14.699 0 26.668 11.969 26.668 26.668v394.66c0 14.699-11.969 26.668-26.668 26.668h-96c-14.699 0-26.664-11.969-26.664-26.668v-394.66c0-14.699 11.965-26.668 26.664-26.668z"/>
  <path d="m16.016 272.01h224c8.832 0 16-7.168 16-16s-7.168-16-16-16h-224c-8.832 0-16 7.168-16 16s7.168 16 16 16z"/>
  <path d="m101.35 357.34c4.0976 0 8.1914-1.5547 11.309-4.6914 6.25-6.25 6.25-16.383 0-22.637l-74.027-74.023 74.027-74.027c6.25-6.25 6.25-16.387 0-22.637s-16.383-6.25-22.637 0l-85.332 85.336c-6.25 6.25-6.25 16.383 0 22.633l85.332 85.332c3.1367 3.1602 7.2344 4.7148 11.328 4.7148z"/>
</svg>
