<svg enable-background="new 0 0 512 512" version="1.1" viewBox="0 0 512 512" xmlns="http://www.w3.org/2000/svg">
  <g transform="matrix(1 0 0 -1 0 501.15)" stroke-width="1.3333">
    <path d="m353.6 74.486c-11.776 0-21.333 9.5573-21.333 21.333v298.67c0 11.776 9.5573 21.333 21.333 21.333s21.333-9.5573 21.333-21.333v-298.67c0-11.776-9.5573-21.333-21.333-21.333z"/>
    <path d="m353.6 74.486c-5.4636 0-10.922 2.0781-15.079 6.2552l-113.78 113.78c-8.3333 8.3333-8.3333 21.844 0 30.177 8.3333 8.3333 21.844 8.3333 30.183 0l98.697-98.703 98.703 98.703c8.3333 8.3333 21.849 8.3333 30.183 0 8.3333-8.3333 8.3333-21.844 0-30.177l-113.78-113.78c-4.2083-4.1771-9.6667-6.2552-15.131-6.2552z"/>
  </g>
  <path d="m169.11 507.72q-5.0971-13.492-9.5945-26.385-4.4974-13.192-9.2947-26.685h-94.146l-18.889 53.07h-30.283q11.993-32.981 22.487-60.865 10.494-28.184 20.388-53.369 10.194-25.186 20.088-47.973 9.8943-23.087 20.688-45.574h26.685q10.794 22.487 20.688 45.574 9.8943 22.787 19.789 47.973 10.194 25.186 20.688 53.369 10.494 27.884 22.487 60.865zm-27.284-77.056q-9.5945-26.085-19.189-50.371-9.2947-24.586-19.489-47.073-10.494 22.487-20.089 47.073-9.2947 24.286-18.589 50.371z"/>
  <path d="m176.31 27.639q-6.896 7.7955-16.191 18.889-8.9948 10.794-19.189 24.286-10.194 13.192-20.988 28.184-10.794 14.692-21.288 29.983-10.194 14.991-19.489 29.983-9.2947 14.991-16.79 28.484h116.93v24.886h-150.81v-19.489q6.2964-11.993 14.692-26.385 8.695-14.392 18.29-29.383 9.8943-14.991 20.388-30.283 10.494-15.291 20.688-29.383 10.494-14.092 20.088-26.385 9.8943-12.293 17.99-21.588h-106.74v-24.886h142.42z"/>
</svg>
