<svg enable-background="new 0 0 482.81 482.81" version="1.1" viewBox="0 0 482.81 482.81" xmlns="http://www.w3.org/2000/svg">
  <path d="m464.76 25.771h-446.73c-9.951 0-18.037 8.098-18.037 18.037v395.2c0 6.106 3.068 11.491 7.729 14.76 2.516 1.7849 3.695 2.3971 6.469 2.843 1.241 0.272 2.518 0.432 3.839 0.432h446.74c1.318 0 2.595-0.159 3.83-0.432h0.887v-0.271c7.654-2.093 13.317-9.032 13.317-17.331v-395.19c1e-3 -9.944-8.092-18.042-18.045-18.042zm2.583 18.042v51.979h-118.98v-54.56h116.4c1.431 1e-3 2.584 1.16 2.584 2.581zm-1.242 397.33h-117.74v-48.965h118.98v46.824c1e-3 0.916-0.514 1.691-1.241 2.141zm-450.65-2.141v-46.824h55.842v48.965h-54.601c-0.727-0.45-1.241-1.225-1.241-2.141zm185.99-182.13v53.61h-114.69v-53.61zm-114.69-15.463v-57.99h114.69v57.99zm114.69 84.536v50.773h-114.69v-50.773zm0 66.237v48.965h-114.69v-48.965zm15.465 0h115.99v48.965h-115.99zm0-15.463v-50.779h115.99v50.779zm0-66.237v-53.61h115.99v53.61zm0-69.073v-57.99h115.99v57.99zm0-73.453v-56.702h115.99v56.702zm0-72.167v-54.56h115.99v54.56zm-15.465 0h-114.69v-54.56h114.69v54.56zm0 15.465v56.702h-114.69v-56.702zm-130.15 56.702h-55.842v-56.702h55.842zm0 15.463v57.99h-55.842v-57.99zm0 73.453v53.61h-55.842v-53.61zm0 69.073v50.773h-55.842v-50.773zm277.06 50.774v-50.779h118.98v50.779zm0-66.237v-53.61h118.98v53.61zm0-69.073v-57.99h118.98v57.99zm0-73.453v-56.702h118.98v56.702z"/>
</svg>
